# xmcd
#
# Track frame offsets:
#	150
#	19287
#	34115
#	48342
#	68082
#	88452
#	101347
#	119702
#	136587
#	154167
#
# Disc length: 2336 seconds
#
# Revision: 2
# Processed by: cddbd v1.5.2PL0 Copyright (c) Steve Scherf et al.
# Submitted via: CDmax 2.0
#
DISCID=84091e0a
DTITLE=Various Artist - Blue Cat Blues: All Instrumental
DYEAR=1997
DGENRE=Blues
TTITLE0=Smokey Wilson - Just Messin' Around
TTITLE1=Bobby Radcliff - Animator's Convention (Tribute To Albert Collins)
TTITLE2=Ron Levy's Wild Kingdom - Chicken Fried Snake
TTITLE3=Larry Davis - 102nd Street Blues
TTITLE4=Crawl - Blue Cat Blues
TTITLE5=Andrew "Junior Boy" Jones - Jr. Boy's Jam
TTITLE6=Walter "Wolfman" Washington - On the Prowl
TTITLE7=Johnny Nocturne Band - Mardi Gras Alley
TTITLE8=Mojo Buford - Jack Potato Boogie
TTITLE9=Anson Fundeburgh and the Rockets - Down At JJ's
EXTD=LABEL =Rounder Records Corp.\nID =edcd7057\nUPC =712136-7057-27\nCOPY
EXTD=RIGHT =1997
EXTT0=
EXTT1=
EXTT2=
EXTT3=
EXTT4=
EXTT5=
EXTT6=
EXTT7=
EXTT8=
EXTT9=
PLAYORDER=
